# xmcd
#
# Track frame offsets:
#	150
#	14952
#	32542
#	48977
#	62502
#	78035
#	93917
#	110567
#	124332
#	142515
#
# Disc length: 2098 seconds
#
# Revision: 6
# Processed by: cddbd v1.5.2PL0 Copyright (c) Steve Scherf et al.
# Submitted via: EZCDAudioConverter 6.0.5.1
#
DISCID=7708300a
DTITLE=T. Graham Brown - You Can't Take It With You
DYEAR=1991
DGENRE=Country
TTITLE0=You Can't Take It With You
TTITLE1=Love At Work
TTITLE2=The Rock
TTITLE3=With This Ring
TTITLE4=Sweet Believer
TTITLE5=Just A Woman
TTITLE6=You're Everything She Couldn't Be
TTITLE7=Shakey Ground
TTITLE8=Pillow Of Mercy
TTITLE9=Bolt Out Of The Blue
EXTD=
EXTT0=
EXTT1=
EXTT2=
EXTT3=
EXTT4=
EXTT5=
EXTT6=
EXTT7=
EXTT8=
EXTT9=
PLAYORDER=
